HIERARCHY
ROOT hip
{
	OFFSET 0.000000 0.000000 0.000000
	CHANNELS 6 Xposition Yposition Zposition Xrotation Zrotation Yrotation 
	JOINT abdomen
	{
		OFFSET 0.000000 3.422050 0.000000
		CHANNELS 3 Xrotation Zrotation Yrotation 
		JOINT chest
		{
			OFFSET 0.000000 8.486693 -0.684411
			CHANNELS 3 Xrotation Zrotation Yrotation 
			JOINT neck
			{
				OFFSET 0.000000 10.266162 -0.273764
				CHANNELS 3 Xrotation Zrotation Yrotation 
				JOINT head
				{
					OFFSET 0.000000 3.148285 0.000000
					CHANNELS 3 Xrotation Zrotation Yrotation 
					End Site
					{
						OFFSET 0.000000 3.148289 0.000000
					}
				}
			}
			JOINT lCollar
			{
				OFFSET 3.422053 6.707223 -0.821293
				CHANNELS 3 Yrotation Zrotation Xrotation 
				JOINT lShldr
				{
					OFFSET 3.285171 0.000000 0.000000
					CHANNELS 3 Zrotation Yrotation Xrotation 
					JOINT lForeArm
					{
						OFFSET 10.129278 0.000000 0.000000
						CHANNELS 3 Yrotation Zrotation Xrotation 
						JOINT lHand
						{
							OFFSET 8.486692 0.000000 0.000000
							CHANNELS 3 Zrotation Yrotation Xrotation 
							End Site
							{
								OFFSET 4.106464 0.000000 0.000000
							}
						}
					}
				}
			}
			JOINT rCollar
			{
				OFFSET -3.558935 6.707223 -0.821293
				CHANNELS 3 Yrotation Zrotation Xrotation 
				JOINT rShldr
				{
					OFFSET -3.148289 0.000000 0.000000
					CHANNELS 3 Zrotation Yrotation Xrotation 
					JOINT rForeArm
					{
						OFFSET -10.266159 0.000000 0.000000
						CHANNELS 3 Yrotation Zrotation Xrotation 
						JOINT rHand
						{
							OFFSET -8.349810 0.000000 0.000000
							CHANNELS 3 Zrotation Yrotation Xrotation 
							End Site
							{
								OFFSET -4.106464 0.000000 0.000000
							}
						}
					}
				}
			}
		}
	}
	JOINT lThigh
	{
		OFFSET 5.338403 -1.642589 1.368821
		CHANNELS 3 Xrotation Zrotation Yrotation 
		JOINT lShin
		{
			OFFSET -2.053232 -20.121670 0.000000
			CHANNELS 3 Xrotation Zrotation Yrotation 
			JOINT lFoot
			{
				OFFSET 0.000000 -19.300380 -1.231939
				CHANNELS 3 Xrotation Yrotation Zrotation 
				End Site
				{
					OFFSET 0.000000 -2.463878 4.653993
				}
			}
		}
	}
	JOINT rThigh
	{
		OFFSET -5.338403 -1.642589 1.368821
		CHANNELS 3 Xrotation Zrotation Yrotation 
		JOINT rShin
		{
			OFFSET 2.053232 -20.121670 0.000000
			CHANNELS 3 Xrotation Zrotation Yrotation 
			JOINT rFoot
			{
				OFFSET 0.000000 -19.300380 -1.231939
				CHANNELS 3 Xrotation Yrotation Zrotation 
				End Site
				{
					OFFSET 0.000000 -2.463878 4.653993
				}
			}
		}
	}
}
MOTION
Frames: 13
Frame Time: 0.049989
0.000000 43.528500 0.000000 0.000000 0.000000 0.000000 0.000000 0.000000 0.000000 0.000000 0.000000 0.000000 0.000000 0.000000 0.000000 0.000000 0.000000 0.000000 0.000000 0.000000 0.000000 0.000000 0.000000 0.000000 0.000000 0.000000 0.000000 0.000000 0.000000 0.000000 0.000000 0.000000 0.000000 0.000000 0.000000 0.000000 0.000000 0.000000 0.000000 0.000000 0.000000 0.000000 0.000000 0.000000 0.000000 0.000000 0.000000 0.000000 0.000000 0.000000 0.000000 0.000000 0.000000 0.000000 0.000000 0.000000 0.000000 0.000000 0.000000 0.000000 
-20.001890 13.998745 -6.004477 -156.000809 0.000003 0.000001 33.532993 -0.021904 -0.030339 21.364250 -0.127477 -0.616584 17.998348 0.000000 0.000000 8.998567 0.000000 0.000000 5.297971 1.542937 0.318984 -51.307716 16.462061 10.873202 -23.436749 -4.744639 34.279270 -4.768666 22.604116 42.210838 -5.301469 -1.546428 0.318775 51.303783 -16.464880 10.872271 23.434311 4.740314 34.280052 4.763882 -22.606157 42.211788 -131.292877 24.419704 0.617383 10.799624 9.352931 -0.786322 30.253429 -3.226262 2.120811 -143.774429 -23.671959 0.887565 35.791046 -11.824277 6.639565 19.032698 -1.776397 -5.014713 
-20.001890 14.007422 -6.041523 -156.612167 0.000003 0.000001 33.532993 -0.021904 -0.030339 22.470261 -0.134967 -0.620930 18.442467 0.000000 0.000000 9.498124 0.000000 0.000000 4.956718 2.312700 -0.034924 -51.882465 16.654612 10.743875 -24.013329 -5.304254 34.232983 -4.880759 22.855486 41.865414 -4.953820 -2.343037 -0.027615 51.914585 -16.690050 10.726161 23.917604 5.360108 34.229458 4.853279 -22.870087 41.874958 -130.770706 24.278006 0.834055 10.799624 9.352931 -0.786322 30.128922 -3.462177 2.173317 -143.176270 -23.702959 0.654715 35.791046 -11.824276 6.639565 18.964388 -1.569258 -5.126860 
-20.001890 14.016100 -6.078569 -157.223816 0.000003 0.000001 33.532993 -0.021904 -0.030339 23.577930 -0.142382 -0.625427 18.886688 0.000000 0.000000 9.997831 0.000000 0.000000 4.619669 3.085340 -0.384818 -52.458473 16.845984 10.612349 -24.591370 -5.863814 34.180943 -4.994729 23.106274 41.518726 -4.610399 -3.142584 -0.369755 52.527004 -16.913822 10.577303 24.402336 5.979924 34.173515 4.944555 -23.133579 41.536953 -130.249557 24.134470 1.049124 10.799624 9.352931 -0.786322 30.004574 -3.698225 2.225326 -142.577606 -23.731745 0.421383 35.791046 -11.824277 6.639565 18.896484 -1.361971 -5.238757 
-20.001890 14.024777 -6.115616 -157.835709 0.000003 0.000001 33.532993 -0.021904 -0.030339 24.687063 -0.149719 -0.630073 19.331007 0.000000 0.000000 10.497674 0.000000 0.000000 4.286782 3.860710 -0.730748 -53.035751 17.036154 10.478634 -25.170929 -6.423211 34.123142 -5.110586 23.356472 41.170803 -4.271152 -3.944913 -0.707701 53.140999 -17.136143 10.425708 24.888569 6.599651 34.112179 5.037721 -23.396614 41.197758 -129.729477 23.989124 1.262570 10.799624 9.352931 -0.786322 29.880405 -3.934406 2.276841 -141.978500 -23.758295 0.187612 35.791046 -11.824277 6.639565 18.828985 -1.154539 -5.350406 
-20.001890 14.033455 -6.152663 -158.447800 0.000003 0.000000 33.532990 -0.021904 -0.030339 25.797451 -0.156973 -0.634865 19.775406 0.000000 0.000000 10.997630 0.000000 0.000000 3.958009 4.638664 -1.072764 -53.614258 17.225079 10.342742 -25.752068 -6.982327 34.059536 -5.228336 23.606058 40.821609 -3.936029 -4.749868 -1.041504 53.756588 -17.356979 10.271386 25.376398 7.219192 34.045437 5.132784 -23.659174 40.857361 -129.210434 23.841982 1.474369 10.799623 9.352931 -0.786322 29.756399 -4.170712 2.327860 -141.378998 -23.782618 -0.046560 35.791046 -11.824277 6.639565 18.761890 -0.946965 -5.461809 
-20.001890 14.042131 -6.189709 -159.060074 0.000002 0.000000 33.532993 -0.021904 -0.030339 26.908888 -0.164139 -0.639802 20.219873 0.000000 0.000000 11.497680 0.000000 0.000000 3.633304 5.419055 -1.410918 -54.193977 17.412733 10.204682 -26.334835 -7.541046 33.990089 -5.347986 23.855001 40.471138 -3.604973 -5.557291 -1.371217 54.373741 -17.576288 10.114356 25.865875 7.838435 33.973236 5.229759 -23.921251 40.515762 -128.692505 23.693073 1.684508 10.799625 9.352933 -0.786322 29.632568 -4.407143 2.378386 -140.779144 -23.804703 -0.281094 35.791050 -11.824277 6.639565 18.695200 -0.739251 -5.572968 
-20.001890 14.050809 -6.226756 -159.672470 0.000002 0.000000 33.532993 -0.021904 -0.030339 28.021156 -0.171213 -0.644880 20.664389 0.000000 0.000000 11.997808 0.000000 0.000000 3.312622 6.201735 -1.745259 -54.774876 17.599077 10.064464 -26.919302 -8.099254 33.914787 -5.469545 24.103296 40.119385 -3.277934 -6.367027 -1.696892 54.992401 -17.794016 9.954619 26.357084 8.457278 33.895550 5.328652 -24.182817 40.172943 -128.175674 23.542400 1.892956 10.799624 9.352931 -0.786322 29.508890 -4.643691 2.428416 -140.179001 -23.824545 -0.515948 35.791046 -11.824277 6.639565 18.628914 -0.531401 -5.683885 
-20.001890 14.059486 -6.263803 -160.284988 0.000002 0.000000 33.532993 -0.021904 -0.030339 29.134060 -0.178192 -0.650098 21.108948 0.000000 0.000000 12.497993 0.000000 0.000000 2.995917 6.986557 -2.075838 -55.356956 17.784086 9.922103 -27.505529 -8.656838 33.833607 -5.593023 24.350922 39.766342 -2.954858 -7.178917 -2.018582 55.612576 -18.010124 9.792196 26.850100 9.075610 33.812332 5.429476 -24.443865 39.828907 -127.659981 23.390003 2.099701 10.799624 9.352931 -0.786322 29.385380 -4.880354 2.477954 -139.578598 -23.842134 -0.751083 35.791046 -11.824277 6.639565 18.563034 -0.323418 -5.794561 
-20.001890 14.068164 -6.300849 -160.897583 0.000002 0.000000 33.532993 -0.021904 -0.030339 30.247387 -0.185070 -0.655453 21.553535 0.000000 0.000000 12.998213 0.000000 0.000000 2.683144 7.773376 -2.402706 -55.940186 17.967728 9.777611 -28.093559 -9.213677 33.746490 -5.718425 24.597866 39.412010 -2.635692 -7.992806 -2.336338 56.234234 -18.224579 9.627104 27.344999 9.693327 33.723549 5.532237 -24.704357 39.483616 -127.145447 23.235893 2.304721 10.799624 9.352931 -0.786322 29.262024 -5.117129 2.526998 -138.977997 -23.857473 -0.986460 35.791046 -11.824277 6.639565 18.497551 -0.115303 -5.904998 
-20.001892 14.076841 -6.337895 -161.510193 0.000002 0.000000 33.532993 -0.021904 -0.030339 31.360920 -0.191844 -0.660941 21.998129 0.000000 0.000000 13.498457 0.000000 0.000000 2.374258 8.562044 -2.725913 -56.524536 18.149967 9.631001 -28.683462 -9.769658 33.653431 -5.845762 24.844097 39.056366 -2.320386 -8.808540 -2.650212 56.857338 -18.437321 9.459352 27.841864 10.310324 33.629189 5.636946 -24.964287 39.137074 -126.632088 23.080093 2.508000 10.799624 9.352931 -0.786322 29.138821 -5.354011 2.575549 -138.377228 -23.870546 -1.222034 35.791046 -11.824277 6.639565 18.432470 0.092938 -6.015199 
-20.001892 14.085519 -6.374942 -162.122818 0.000002 0.000000 33.532993 -0.021904 -0.030339 32.474464 -0.198510 -0.666560 22.442730 0.000000 0.000000 13.998701 0.000000 0.000000 2.069213 9.352415 -3.045509 -57.109989 18.330774 9.482286 -29.275305 -10.324663 33.554405 -5.975036 25.089609 38.699406 -2.008886 -9.625957 -2.960254 57.481869 -18.648317 9.288956 28.340759 10.926486 33.529175 5.743616 -25.223646 38.789288 -126.119934 22.922626 2.709519 10.799624 9.352931 -0.786322 29.015781 -5.590998 2.623608 -137.776352 -23.881367 -1.457767 35.791046 -11.824277 6.639565 18.367788 0.301304 -6.125163 
-20.001892 14.094196 -6.411988 -162.735413 0.000001 0.000000 33.532993 -0.021904 -0.030339 33.587791 -0.205065 -0.672306 22.887310 0.000000 0.000000 14.498924 0.000000 0.000000 1.767966 10.144343 -3.361545 -57.696499 18.510115 9.331485 -29.869131 -10.878577 33.449390 -6.106256 25.334375 38.341118 -1.701143 -10.444907 -3.266517 58.107807 -18.857527 9.115942 28.841772 11.541711 33.423492 5.852251 -25.482403 38.440216 -125.608994 22.763517 2.909262 10.799624 9.352931 -0.786322 28.892881 -5.828083 2.671175 -137.175415 -23.889923 -1.693619 35.791046 -11.824277 6.639565 18.303509 0.509792 -6.234897 
